<svg xmlns="http://www.w3.org/2000/svg" width="46.253" height="46.253" viewBox="0 0 46.253 46.253">
  <g id="np_calendar-tasks-manager_878575_FF0000" transform="translate(0.004 0.004)">
    <path id="Path_223" data-name="Path 223" d="M41.423,46.249H4.823A4.832,4.832,0,0,1,0,41.423V8.679A4.834,4.834,0,0,1,4.825,3.851h36.6a4.834,4.834,0,0,1,4.828,4.828V41.423A4.831,4.831,0,0,1,41.423,46.249ZM4.825,7.707a.975.975,0,0,0-.974.974V41.425a.972.972,0,0,0,.972.972h36.6a.972.972,0,0,0,.972-.972V8.681a.975.975,0,0,0-.974-.974Zm39.5,7.707H1.924a1.928,1.928,0,1,1,0-3.855h42.4a1.928,1.928,0,1,1,0,3.855ZM9.633,9.633A1.928,1.928,0,0,1,7.705,7.705V1.924a1.928,1.928,0,1,1,3.855,0V7.705A1.928,1.928,0,0,1,9.633,9.633Zm26.981,0a1.927,1.927,0,0,1-1.928-1.928V1.924a1.928,1.928,0,0,1,3.855,0V7.705A1.927,1.927,0,0,1,36.614,9.633Z" fill="red"/>
    <path id="Path_224" data-name="Path 224" d="M24.688,76.927a1.928,1.928,0,0,1-3.855,0,1.928,1.928,0,1,1,3.855,0" transform="translate(-11.199 -40.313)" fill="red"/>
    <path id="Path_225" data-name="Path 225" d="M24.688,60.261a1.928,1.928,0,0,1-3.855,0,1.928,1.928,0,0,1,3.855,0" transform="translate(-11.199 -31.356)" fill="red"/>
    <path id="Path_226" data-name="Path 226" d="M37.188,76.927a1.928,1.928,0,0,1-3.855,0,1.928,1.928,0,1,1,3.855,0" transform="translate(-17.918 -40.313)" fill="red"/>
    <path id="Path_227" data-name="Path 227" d="M37.188,60.261a1.928,1.928,0,0,1-3.855,0,1.928,1.928,0,0,1,3.855,0" transform="translate(-17.918 -31.356)" fill="red"/>
    <path id="Path_228" data-name="Path 228" d="M37.188,43.593a1.928,1.928,0,1,1-3.855,0,1.928,1.928,0,0,1,3.855,0" transform="translate(-17.918 -22.397)" fill="red"/>
    <path id="Path_229" data-name="Path 229" d="M62.188,76.927a1.928,1.928,0,0,1-3.855,0,1.928,1.928,0,1,1,3.855,0" transform="translate(-31.355 -40.313)" fill="red"/>
    <path id="Path_230" data-name="Path 230" d="M62.188,60.261a1.928,1.928,0,0,1-3.855,0,1.928,1.928,0,0,1,3.855,0" transform="translate(-31.355 -31.356)" fill="red"/>
    <path id="Path_231" data-name="Path 231" d="M62.188,43.593a1.928,1.928,0,1,1-3.855,0,1.928,1.928,0,0,1,3.855,0" transform="translate(-31.355 -22.397)" fill="red"/>
    <path id="Path_232" data-name="Path 232" d="M74.688,60.261a1.928,1.928,0,0,1-3.855,0,1.928,1.928,0,0,1,3.855,0" transform="translate(-38.074 -31.356)" fill="red"/>
    <path id="Path_233" data-name="Path 233" d="M74.688,43.593a1.928,1.928,0,1,1-3.855,0,1.928,1.928,0,0,1,3.855,0" transform="translate(-38.074 -22.397)" fill="red"/>
    <path id="Path_234" data-name="Path 234" d="M49.688,76.927a1.928,1.928,0,0,1-3.855,0,1.928,1.928,0,1,1,3.855,0" transform="translate(-24.636 -40.313)" fill="red"/>
    <path id="Path_235" data-name="Path 235" d="M49.688,60.261a1.928,1.928,0,0,1-3.855,0,1.928,1.928,0,0,1,3.855,0" transform="translate(-24.636 -31.356)" fill="red"/>
    <path id="Path_236" data-name="Path 236" d="M49.688,43.593a1.928,1.928,0,1,1-3.855,0,1.928,1.928,0,0,1,3.855,0" transform="translate(-24.636 -22.397)" fill="red"/>
  </g>
</svg>
