<svg xmlns="http://www.w3.org/2000/svg" width="91" height="91.028" viewBox="0 0 91 91.028">
  <g id="np_collections_2866359_FF0000" transform="translate(-4.5 -4.5)">
    <path id="Path_294" data-name="Path 294" d="M5.555,28.832H27.778a1.055,1.055,0,0,0,1.055-1.055V5.554A1.055,1.055,0,0,0,27.778,4.5H5.555A1.049,1.049,0,0,0,4.527,5.554V27.777a1.032,1.032,0,0,0,1.027,1.055Z" fill="red"/>
    <path id="Path_295" data-name="Path 295" d="M38.891,28.832H61.114a1.055,1.055,0,0,0,1.055-1.055V5.554A1.055,1.055,0,0,0,61.114,4.5H38.891a1.055,1.055,0,0,0-1.055,1.055V27.777A1.068,1.068,0,0,0,38.891,28.832Z" fill="red"/>
    <path id="Path_296" data-name="Path 296" d="M94.445,4.527H72.222a1.055,1.055,0,0,0-1.055,1.055V27.805a1.055,1.055,0,0,0,1.055,1.055H94.445A1.055,1.055,0,0,0,95.5,27.805V5.555a1.032,1.032,0,0,0-1.055-1.027Z" fill="red"/>
    <path id="Path_297" data-name="Path 297" d="M5.555,62.168H27.778a1.055,1.055,0,0,0,1.055-1.055V38.89a1.055,1.055,0,0,0-1.055-1.055l-22.223,0A1.055,1.055,0,0,0,4.5,38.886V61.109a1.074,1.074,0,0,0,1.055,1.059Z" fill="red"/>
    <path id="Path_298" data-name="Path 298" d="M38.891,62.168H61.114a1.055,1.055,0,0,0,1.055-1.055V38.89a1.055,1.055,0,0,0-1.055-1.055H38.891a1.055,1.055,0,0,0-1.055,1.055V61.113A1.068,1.068,0,0,0,38.891,62.168Z" fill="red"/>
    <path id="Path_299" data-name="Path 299" d="M94.445,37.859H72.222a1.055,1.055,0,0,0-1.055,1.055V61.137a1.055,1.055,0,0,0,1.055,1.055H94.445A1.055,1.055,0,0,0,95.5,61.137V38.914A1.038,1.038,0,0,0,94.445,37.859Z" fill="red"/>
    <path id="Path_300" data-name="Path 300" d="M5.555,95.5H27.778a1.055,1.055,0,0,0,1.055-1.055V72.222a1.055,1.055,0,0,0-1.055-1.055H5.555A1.055,1.055,0,0,0,4.5,72.222V94.445A1.073,1.073,0,0,0,5.555,95.5Z" fill="red"/>
    <path id="Path_301" data-name="Path 301" d="M38.891,95.5H61.114a1.055,1.055,0,0,0,1.055-1.055V72.222a1.055,1.055,0,0,0-1.055-1.055H38.891a1.055,1.055,0,0,0-1.055,1.055V94.445A1.068,1.068,0,0,0,38.891,95.5Z" fill="red"/>
    <path id="Path_302" data-name="Path 302" d="M94.445,71.195H72.222a1.055,1.055,0,0,0-1.055,1.055V94.473a1.055,1.055,0,0,0,1.055,1.055H94.445A1.055,1.055,0,0,0,95.5,94.473V72.25A1.038,1.038,0,0,0,94.445,71.195Z" fill="red"/>
  </g>
</svg>
