<svg xmlns="http://www.w3.org/2000/svg" width="36.273" height="36.273" viewBox="0 0 36.273 36.273">
  <g id="np_dollar_1806095_B8B8B8" transform="translate(-2.5 -2.5)">
    <path id="Path_278" data-name="Path 278" d="M20.636,2.5A18.136,18.136,0,1,0,38.773,20.636,18.153,18.153,0,0,0,20.636,2.5Zm0,32.684A14.548,14.548,0,1,1,35.184,20.636,14.569,14.569,0,0,1,20.636,35.184Z" fill=""/>
    <path id="Path_279" data-name="Path 279" d="M41.49,30.807H39.924a2.088,2.088,0,0,1-2.061-2.291,2.184,2.184,0,0,1,2.176-1.87h1.833a1.468,1.468,0,0,1,1.412,1.145.372.372,0,0,0,.382.306h2.1a.424.424,0,0,0,.421-.421,4.367,4.367,0,0,0-4.048-3.894V21.721a.424.424,0,0,0-.421-.421H39.657a.424.424,0,0,0-.421.421v2.1a4.952,4.952,0,0,0-4.276,5.421,5.1,5.1,0,0,0,5.155,4.467h1.336A2.088,2.088,0,0,1,43.513,36a2.184,2.184,0,0,1-2.176,1.87H39.5a1.468,1.468,0,0,1-1.412-1.145.372.372,0,0,0-.382-.306h-2.1a.4.4,0,0,0-.421.421,4.367,4.367,0,0,0,4.048,3.894V42.8a.424.424,0,0,0,.421.421h2.061a.424.424,0,0,0,.421-.421V40.657a5.061,5.061,0,0,0,4.276-4.391,4.958,4.958,0,0,0-4.925-5.459Z" transform="translate(-20.051 -11.622)" fill=""/>
  </g>
</svg>
