<svg xmlns="http://www.w3.org/2000/svg" width="26.22" height="26.22" viewBox="0 0 26.22 26.22">
  <g id="np_info_860103_B8B8B8" transform="translate(-7 -7)">
    <path id="Path_241" data-name="Path 241" d="M20.11,7A13.11,13.11,0,1,0,33.22,20.11,13.129,13.129,0,0,0,20.11,7Zm0,24.39A11.281,11.281,0,1,1,31.39,20.11,11.295,11.295,0,0,1,20.11,31.39Z" fill=""/>
    <path id="Path_242" data-name="Path 242" d="M47.915,41a.9.9,0,0,0-.915.915v7.012a.915.915,0,0,0,1.829,0V41.915A.9.9,0,0,0,47.915,41Z" transform="translate(-27.805 -23.634)" fill=""/>
    <path id="Path_243" data-name="Path 243" d="M47.22,30a1.22,1.22,0,1,0,1.22,1.22A1.223,1.223,0,0,0,47.22,30Z" transform="translate(-27.11 -15.988)" fill=""/>
  </g>
</svg>
