<svg xmlns="http://www.w3.org/2000/svg" width="35.328" height="31.927" viewBox="0 0 35.328 31.927">
  <g id="np_stack_2383294_FF0000" transform="translate(-2.499 -7.124)">
    <path id="Path_275" data-name="Path 275" d="M37.01,67.586,32.249,65.8l-8.591,3.235a9.526,9.526,0,0,1-3.5.632,10.214,10.214,0,0,1-3.5-.632L8.077,65.8l-4.76,1.785A1.243,1.243,0,0,0,2.5,68.814a1.3,1.3,0,0,0,.818,1.227L17.6,75.434a7.184,7.184,0,0,0,5.132,0l14.279-5.392a1.243,1.243,0,0,0,.818-1.227,1.3,1.3,0,0,0-.816-1.227Z" transform="translate(0 -36.857)" fill="red"/>
    <path id="Path_276" data-name="Path 276" d="M37.01,43.684,32.249,41.9l-8.591,3.235a9.526,9.526,0,0,1-3.5.632,10.214,10.214,0,0,1-3.5-.632L8.077,41.9l-4.76,1.785A1.243,1.243,0,0,0,2.5,44.911a1.3,1.3,0,0,0,.818,1.227L17.6,51.531a7.184,7.184,0,0,0,5.132,0l14.279-5.392a1.243,1.243,0,0,0,.818-1.227,1.3,1.3,0,0,0-.816-1.227Z" transform="translate(0 -21.843)" fill="red"/>
    <path id="Path_277" data-name="Path 277" d="M3.318,15.445,17.6,20.837a7.184,7.184,0,0,0,5.132,0L37.01,15.445a1.27,1.27,0,0,0,.818-1.227,1.3,1.3,0,0,0-.818-1.227L22.729,7.6a7.184,7.184,0,0,0-5.132,0L3.318,12.99A1.243,1.243,0,0,0,2.5,14.218a1.334,1.334,0,0,0,.818,1.227Z" transform="translate(-0.001 0)" fill="red"/>
  </g>
</svg>
