<svg xmlns="http://www.w3.org/2000/svg" width="31.657" height="28.342" viewBox="0 0 31.657 28.342">
  <path id="np_favorite_3558054_B8B8B8" d="M41.249,20.986a8.9,8.9,0,0,0-7.42,3.294,8.9,8.9,0,0,0-7.42-3.294A9.094,9.094,0,0,0,18,30.271a11.871,11.871,0,0,0,4.15,9.017L33.829,49.315,45.507,39.288a11.868,11.868,0,0,0,4.15-9.008,9.128,9.128,0,0,0-8.409-9.294ZM42.935,36.32,33.829,44.1,24.722,36.32a7.92,7.92,0,0,1-2.765-6.04,5.225,5.225,0,0,1,4.68-5.333l.267,0A4.945,4.945,0,0,1,31.85,29.89v.989h3.957V29.89a4.946,4.946,0,0,1,5.213-4.947,5.225,5.225,0,0,1,4.68,5.333,7.915,7.915,0,0,1-2.765,6.044Z" transform="translate(-18 -20.972)" fill=""/>
</svg>
