<svg xmlns="http://www.w3.org/2000/svg" width="36" height="32.283" viewBox="0 0 36 32.283">
  <path id="np_photo_2067966_FF0000" d="M35.533,14.723h-4.7L30,9.983a2.993,2.993,0,0,0-1.252-1.972,3.047,3.047,0,0,0-2.275-.493L5.082,11.272A3.023,3.023,0,0,0,2.618,14.8l3.3,18.62a3.247,3.247,0,0,0,1.252,1.972,2.907,2.907,0,0,0,1.745.569,2.289,2.289,0,0,0,.53-.039l1.327-.228v1.024A3.043,3.043,0,0,0,13.8,39.75H35.533a3.043,3.043,0,0,0,3.034-3.034V17.794a3.05,3.05,0,0,0-3.034-3.071Zm-1.745,6.522a1.9,1.9,0,1,1-1.9-1.9A1.926,1.926,0,0,1,33.788,21.245ZM8.95,33.417a.471.471,0,0,1-.379-.076A.493.493,0,0,1,8.342,33l-3.26-18.62a.526.526,0,0,1,.418-.607L26.887,9.982h.076a.458.458,0,0,1,.3.114.493.493,0,0,1,.228.341l.758,4.322H13.8a3.043,3.043,0,0,0-3.034,3.034V33.113Zm26.583,3.792H13.8a.518.518,0,0,1-.53-.53V31.521l7.091-8.153a.464.464,0,0,1,.72,0l4.4,5.007a.294.294,0,0,1,.076.3l-.569,2.579a.173.173,0,0,0,.3.151l4.4-4.816a.325.325,0,0,1,.493,0L36.027,33v3.678a.511.511,0,0,1-.493.53Z" transform="translate(-2.567 -7.467)" fill="red"/>
</svg>
