<svg xmlns="http://www.w3.org/2000/svg" width="117.824" height="91.028" viewBox="0 0 117.824 91.028">
  <g id="np_picture_800093_FF0000" transform="translate(-0.39 -10.312)">
    <path id="Path_303" data-name="Path 303" d="M112.323,10.312H6.281A5.8,5.8,0,0,0,.39,16V95.651a5.8,5.8,0,0,0,5.891,5.689H112.323a5.8,5.8,0,0,0,5.891-5.689V16a5.8,5.8,0,0,0-5.891-5.689Zm-5.891,79.649H12.173V21.691h94.259Z" fill="red"/>
    <path id="Path_304" data-name="Path 304" d="M103.332,73.809V65c-.025-.1-.074-.254-.1-.352L91.892,46.8a1.442,1.442,0,0,0-2.253,0l-5.175,8.145L73,36.875a1.442,1.442,0,0,0-2.253,0L53.979,63.34a1.44,1.44,0,0,1-2.179.1L35.133,51.172a1.473,1.473,0,0,0-2.055-.039l-17.8,18.73V74.8h86.8a1.159,1.159,0,0,0,1.263-1Z" transform="translate(0 7.413)" fill="red"/>
    <path id="Path_305" data-name="Path 305" d="M27.676,40.078a7.441,7.441,0,1,0-7.441-7.441A7.452,7.452,0,0,0,27.676,40.078Z" transform="translate(4.378 2.689)" fill="red"/>
  </g>
</svg>
