<svg xmlns="http://www.w3.org/2000/svg" width="27.872" height="28" viewBox="0 0 27.872 28">
 
  <g id="np_profile_973395_B8B8B8" transform="translate(-4.898 -4.582)">
    <path id="Path_280" data-name="Path 280"  d="M33.571,19.192A7.305,7.305,0,1,0,26.25,11.9,7.318,7.318,0,0,0,33.571,19.192ZM28.755,11.9a4.816,4.816,0,1,1,4.816,4.816A4.81,4.81,0,0,1,28.755,11.9Z" transform="translate(-14.77 0)"/>
    <path id="Path_281" data-name="Path 281"  d="M24.806,49.962l-.578-.064-.385.385a7.253,7.253,0,0,1-10.051,0l-.385-.385-.545.064A8.636,8.636,0,0,0,4.9,58.535v5.394H32.77V58.535a8.613,8.613,0,0,0-7.963-8.573ZM7.371,61.425v-2.89a6.1,6.1,0,0,1,5.105-6A9.6,9.6,0,0,0,18.8,54.842,9.747,9.747,0,0,0,25.126,52.5a6.051,6.051,0,0,1,5.105,6v2.89H7.371Z" transform="translate(0 -31.347)"/>
  </g>
</svg>
