<svg xmlns="http://www.w3.org/2000/svg" width="100" height="79.524" viewBox="0 0 100 79.524">
  <g id="np_purse_3362983_FF0000" transform="translate(0 -10.238)">
    <path id="Path_292" data-name="Path 292" d="M6.231,10.238H85.754a6.084,6.084,0,0,1,6.23,6.231v1.188H10.679a2.672,2.672,0,1,0,0,5.344H91.984v8.9a6.267,6.267,0,0,1-6.23,6.23H75.367a6.021,6.021,0,0,0-6.23,5.934V55.937a6.021,6.021,0,0,0,6.23,5.934H85.754a6.267,6.267,0,0,1,6.23,6.23v15.43a6.084,6.084,0,0,1-6.23,6.23H6.23A6.084,6.084,0,0,1,0,83.531V16.469A6.084,6.084,0,0,1,6.23,10.239Z" fill="red" fill-rule="evenodd"/>
    <path id="Path_293" data-name="Path 293" d="M76.262,39.316h18.4a5.317,5.317,0,0,1,5.34,5.34V55.34a5.317,5.317,0,0,1-5.34,5.34h-18.4a5.317,5.317,0,0,1-5.34-5.34V44.656A5.317,5.317,0,0,1,76.262,39.316Zm3.859,6.824A3.681,3.681,0,0,1,83.684,50a3.43,3.43,0,0,1-3.562,3.563A3.681,3.681,0,0,1,76.262,50,3.93,3.93,0,0,1,80.121,46.14Z" fill="red" fill-rule="evenodd"/>
  </g>
</svg>
