<svg xmlns="http://www.w3.org/2000/svg" width="23.387" height="17.151" viewBox="0 0 23.387 17.151">
  <path id="np_spreadsheet_945946_000000" d="M12.276,29.733H5v-3.9h7.276Zm.52,0h7.8v-3.9H12.8Zm0,4.418h7.8v-3.9H12.8Zm-.52-12.733H5v3.9h7.276Zm.52,3.9h7.8v-3.9H12.8ZM26.568,17H6.819A1.819,1.819,0,0,0,5,18.819V20.9H28.387V18.819A1.819,1.819,0,0,0,26.568,17Zm-5.457,8.315h7.276v-3.9H21.111Zm-8.835,4.937H5v2.079a1.819,1.819,0,0,0,1.819,1.819h5.457Zm8.835-.52h7.276v-3.9H21.111Zm0,4.418h5.457a1.819,1.819,0,0,0,1.819-1.819V30.253H21.111Z" transform="translate(-5 -17)" fill=""/>
</svg>
