<svg xmlns="http://www.w3.org/2000/svg" width="36" height="34.349" viewBox="0 0 36 34.349">
  <path id="np_star_1864272_FF0000" d="M30.142,25.72l7.765-6.4A1.559,1.559,0,0,0,37,16.554l-10-.607a1.572,1.572,0,0,1-1.364-.985L21.959,5.568a1.566,1.566,0,0,0-2.916,0l-3.674,9.356A1.572,1.572,0,0,1,14,15.91l-10.038.607a1.558,1.558,0,0,0-.909,2.764l7.765,6.364a1.594,1.594,0,0,1,.53,1.591L8.815,36.971a1.561,1.561,0,0,0,2.348,1.7l8.448-5.417a1.487,1.487,0,0,1,1.666,0l8.484,5.417a1.56,1.56,0,0,0,2.348-1.7l-2.538-9.7a1.558,1.558,0,0,1,.57-1.552Z" transform="translate(-2.482 -4.574)" fill=""/>
</svg>
