<svg xmlns="http://www.w3.org/2000/svg" width="36" height="33.832" viewBox="0 0 36 33.832">
  <g id="np_ranking_3934362_FF0000" transform="translate(-5.5 -7.359)">
    <path id="Path_311" data-name="Path 311" d="M40.489,55.712H30.174v-7.2A1.009,1.009,0,0,0,29.163,47.5H17.837a1.012,1.012,0,0,0-1.011,1.011v3.236H6.511A1.012,1.012,0,0,0,5.5,52.758V64.084A1.009,1.009,0,0,0,6.511,65.1H40.489A1.009,1.009,0,0,0,41.5,64.084V56.723a1.009,1.009,0,0,0-1.011-1.011ZM16.826,63.073h-9.3v-9.3h9.3Zm11.326-6.35v6.35h-9.3V49.522h9.3Zm11.326,6.35h-9.3V57.734h9.3Z" transform="translate(0 -23.904)" fill="red"/>
    <path id="Path_312" data-name="Path 312" d="M36.216,15.612,35.625,19v0a1.011,1.011,0,0,0,1.465,1.068l3.062-1.59,3.038,1.618a.987.987,0,0,0,.472.117,1.008,1.008,0,0,0,1-1.177l-.57-3.389,2.468-2.391h0A1.011,1.011,0,0,0,46,11.526l-3.418-.514L41.07,7.927a1,1,0,0,0-.918-.567,1.011,1.011,0,0,0-.905.562L37.725,11l-3.4.485a1.014,1.014,0,0,0-.809.687,1,1,0,0,0,.251,1.035Zm2.318-2.686a1.018,1.018,0,0,0,.76-.55l.858-1.719L41,12.381v0a1.011,1.011,0,0,0,.773.555l1.9.283-1.375,1.335h0a1,1,0,0,0-.3.894l.311,1.88-1.7-.894h0a1.028,1.028,0,0,0-.931,0l-1.711.89.327-1.893h0a1.021,1.021,0,0,0-.288-.894L36.641,13.2Z" transform="translate(-16.652)" fill="red"/>
  </g>
</svg>
