<svg xmlns="http://www.w3.org/2000/svg" width="37.556" height="33.851" viewBox="0 0 37.556 33.851">
  <g id="np_store_1788617_B8B8B8" transform="translate(-8.675 -12.754)">
    <path id="Path_237" data-name="Path 237" d="M45.7,28.479l-6.611-5.206a1.612,1.612,0,0,0-1-.346l-10.642,0H16.812a1.6,1.6,0,0,0-1,.346L9.206,28.481a1.392,1.392,0,0,0-.531,1.092v4.491a.744.744,0,0,0,.744.744H45.488a.744.744,0,0,0,.744-.744V29.572a1.383,1.383,0,0,0-.529-1.093Z" transform="translate(0 -5.55)" fill=""/>
    <path id="Path_238" data-name="Path 238" d="M27.139,12.756a.448.448,0,0,0-.447.447v1.418a.448.448,0,0,0,.447.447H47.428a.446.446,0,0,0,.446-.447l0-1.42a.447.447,0,0,0-.446-.447Z" transform="translate(-9.829)" fill=""/>
    <path id="Path_239" data-name="Path 239" d="M78.089,68.57v-13.8a.622.622,0,0,0-.621-.621H74.434V69.19h3.034a.62.62,0,0,0,.621-.62Z" transform="translate(-35.876 -22.586)" fill=""/>
    <path id="Path_240" data-name="Path 240" d="M18.145,54.152a.622.622,0,0,0-.621.621v13.8a.622.622,0,0,0,.621.621H37.182V54.151h-4.3v7.223a.92.92,0,0,1-.919.919H22.713a.92.92,0,0,1-.92-.919V54.151Z" transform="translate(-4.828 -22.585)" fill=""/>
  </g>
</svg>
