<svg xmlns="http://www.w3.org/2000/svg" width="36" height="38.115" viewBox="0 0 36 38.115">
  <g id="np_trading-card_1032128_FF0000" transform="translate(-10.043 -7.871)">
    <path id="Path_244" data-name="Path 244" d="M29.5,7.871H12.086a2.049,2.049,0,0,0-2.043,2.052V38.659a2.05,2.05,0,0,0,2.043,2.053h7.592L33.03,45.849a2.027,2.027,0,0,0,.73.136,2.057,2.057,0,0,0,1.909-1.318L43.334,24.58l2.574-6.745s0-.007,0-.009c.007-.021.014-.042.019-.064a2.052,2.052,0,0,0-1.2-2.58L31.547,10.109V9.922A2.05,2.05,0,0,0,29.5,7.871Zm2.418,8.093.077.009c.12.012.241.028.361.046.025,0,.048.009.072.011.114.018.227.035.341.057a.275.275,0,0,0,.04.007c.12.021.241.048.361.072.028.007.055.012.083.018.12.027.238.055.357.087l.051.014c.109.028.218.06.327.092.023.009.044.014.067.021.116.035.232.074.348.111l.077.027c.12.042.239.085.357.131s.211.083.317.127c.035.014.069.03.1.046l.208.09c.04.018.081.039.121.058.062.028.123.058.185.088l.125.064.176.088c.044.023.084.048.128.071s.113.06.167.092l.128.074c.053.03.109.064.162.1l.125.08q.079.048.158.1c.042.028.084.055.125.083l.155.1.121.087c.051.035.1.071.15.108s.081.06.121.09l.148.111c.039.03.077.064.116.094l.144.117c.039.032.076.065.114.1l.139.12c.037.032.076.067.113.1s.09.083.135.124.072.069.109.1.088.085.13.127l.106.106c.044.044.086.087.128.131s.069.072.1.11.084.09.125.136.067.074.1.113.081.092.12.14l.1.117c.039.048.077.1.116.141s.062.08.093.118l.113.145.09.122c.037.049.072.1.107.148l.086.124c.035.049.069.1.1.152s.055.085.084.125.065.1.1.155.053.087.079.129.063.1.1.157.051.088.077.131.06.108.088.161l.072.136c.028.053.056.108.084.163s.048.09.069.138l.079.164c.023.048.044.092.065.14s.051.111.074.168.042.1.062.141l.069.168.058.145c.023.057.044.113.065.171s.035.1.053.147.04.117.058.173.033.1.049.15.035.117.055.175.032.1.046.154c.005.016.009.032.014.048L36.843,37.1c-.028.018-.055.035-.084.053s-.084.053-.128.08c-.072.042-.144.085-.216.125-.042.025-.084.048-.127.071l-.241.129-.1.055c-.116.06-.232.117-.348.173l-.04.016c-.1.048-.209.1-.315.141-.04.018-.081.032-.12.049l-.241.1c-.046.018-.09.035-.135.051l-.234.085-.139.048c-.081.028-.162.053-.245.08-.042.012-.084.028-.127.041-.1.03-.206.06-.31.087l-.063.016c-.125.034-.252.064-.377.092-.035.009-.072.016-.109.023-.09.019-.179.039-.271.055l-.139.027c-.083.014-.164.028-.246.041l-.146.021c-.083.012-.165.023-.25.032l-.141.016c-.093.011-.188.018-.283.027-.035,0-.07.007-.106.009l-.026,0v-.007c.005-.058.009-.118.009-.177l.005-7.216V30.8l.012,0c.058-.014.114-.028.171-.048l.035-.011c.058-.018.116-.039.174-.058l.035-.014.164-.065a.035.035,0,0,0,.014-.007c.056-.027.113-.053.167-.081.011-.007.025-.012.035-.019.055-.028.107-.058.16-.088l.023-.014c.049-.028.1-.06.144-.092l.025-.016c.051-.034.1-.071.15-.108l.032-.025c.049-.037.1-.078.144-.118l.007-.005c.046-.041.091-.083.135-.124l.026-.027c.044-.044.086-.087.127-.134.007-.009.016-.016.023-.027.04-.044.077-.088.114-.134a.088.088,0,0,0,.012-.014c.04-.048.076-.1.113-.15l.023-.032c.035-.051.07-.1.1-.157a.084.084,0,0,0,.012-.021c.03-.049.06-.1.088-.152.005-.009.011-.021.016-.03a1.853,1.853,0,0,0,.083-.168c.005-.011.011-.025.016-.035.026-.06.053-.118.076-.18a3.513,3.513,0,0,0-2.013-4.534c-.065-.027-.134-.048-.2-.069l-.049-.014c-.063-.018-.127-.037-.19-.051a.025.025,0,0,0-.011,0l0-6.822V15.932l.023,0c.118.007.236.016.352.03Zm-2.1,15.373c-.039.048-.076.1-.113.143s-.067.081-.1.122l-.116.141c-.033.041-.069.08-.1.118s-.081.092-.121.138-.069.076-.1.115-.084.09-.127.134-.07.072-.107.11l-.13.131c-.035.035-.072.069-.109.1s-.088.085-.135.127l-.111.1c-.046.042-.091.083-.139.124s-.076.065-.113.1l-.143.12c-.039.032-.077.064-.116.094l-.146.117c-.04.03-.077.062-.118.09l-.15.111c-.04.03-.081.058-.121.087s-.1.072-.153.106-.083.055-.121.083-.1.069-.157.1l-.123.078-.158.1-.127.074c-.055.032-.107.064-.162.094s-.084.048-.128.071-.109.06-.165.088l-.128.067-.167.083c-.044.021-.088.044-.132.064s-.114.053-.171.08l-.134.062c-.056.025-.114.049-.172.072l-.135.058c-.058.023-.116.046-.174.067s-.091.035-.137.051-.118.042-.176.064l-.139.048-.179.058c-.048.014-.091.03-.141.044s-.12.035-.179.053-.1.027-.143.041-.121.03-.181.048l-.141.035-.183.042c-.048.011-.1.023-.144.032s-.123.027-.185.037l-.146.028c-.062.011-.125.021-.187.03l-.144.025-.192.027-.143.019c-.065.007-.13.012-.2.021l-.139.014c-.069.007-.137.011-.206.014-.044,0-.086.007-.13.009-.077.005-.153.009-.229.011l-.109.005c-.114,0-.227.005-.341.005s-.227,0-.341-.005l-.109-.005-.229-.011c-.044,0-.088-.007-.134-.009l-.2-.014-.143-.014c-.065-.007-.128-.012-.194-.021l-.144-.019c-.063-.009-.127-.016-.19-.027-.048-.007-.1-.014-.144-.025s-.123-.019-.187-.03l-.146-.028c-.062-.011-.121-.023-.183-.037s-.1-.021-.144-.032-.121-.027-.181-.042-.1-.025-.146-.035-.12-.03-.178-.048l-.144-.042-.178-.051c-.048-.014-.1-.03-.143-.046l-.176-.057-.141-.049c-.058-.021-.116-.041-.172-.064s-.1-.035-.141-.053l-.171-.065-.139-.058-.167-.071-.137-.062c-.055-.025-.111-.049-.165-.078l-.135-.065c-.055-.028-.109-.053-.164-.081l-.134-.071-.16-.085c-.044-.025-.088-.049-.132-.072s-.106-.062-.16-.092-.086-.051-.128-.078-.1-.064-.157-.1l-.127-.08c-.051-.034-.1-.067-.153-.1s-.084-.055-.125-.085l-.151-.1c-.042-.028-.083-.06-.123-.088s-.1-.072-.146-.11l-.121-.092c-.048-.039-.1-.074-.144-.115s-.079-.064-.118-.1-.1-.08-.141-.118-.077-.065-.114-.1-.091-.081-.137-.122-.076-.067-.113-.1-.088-.085-.134-.125-.074-.071-.111-.106-.086-.087-.13-.129l-.107-.111-.125-.133L12.332,32c-.04-.046-.081-.09-.121-.138s-.069-.08-.1-.118l-.118-.141c-.033-.041-.067-.081-.1-.122s-.076-.1-.113-.143-.065-.083-.1-.125c-.011-.012-.019-.027-.03-.041l-.009-13.762.03-.041c.032-.042.063-.083.1-.124s.074-.1.113-.145.065-.081.1-.122l.118-.141c.033-.041.069-.08.1-.118l.121-.138c.035-.039.07-.078.106-.115s.083-.09.125-.134.072-.072.107-.11.086-.087.13-.129.072-.072.111-.108.088-.085.134-.125.076-.069.113-.1.09-.081.137-.122l.116-.1c.048-.041.093-.08.141-.118s.077-.065.118-.1.1-.076.144-.115l.121-.092.146-.108.123-.088c.049-.035.1-.071.151-.1l.125-.085.153-.1c.042-.028.084-.053.127-.081s.1-.065.157-.1l.128-.078.16-.09c.044-.027.088-.049.132-.074s.107-.058.16-.087.088-.048.134-.069.109-.055.164-.081l.135-.065.165-.078c.046-.019.091-.042.137-.062s.113-.048.167-.072.093-.039.139-.058l.171-.067.141-.053c.056-.021.114-.042.172-.062s.1-.034.141-.051l.176-.055c.048-.016.1-.032.143-.046s.118-.035.178-.051l.144-.042c.06-.014.12-.03.178-.046l.146-.039.181-.042c.048-.011.1-.023.146-.032s.121-.025.183-.035l.146-.028c.062-.011.123-.021.187-.03l.144-.025c.063-.009.127-.016.19-.027l.144-.019c.065-.009.128-.014.194-.021.048-.005.1-.011.143-.014.069-.007.137-.011.2-.016.044,0,.088-.007.134-.009.077-.005.153-.007.229-.009l.109-.005c.114,0,.227-.007.341-.007s.227,0,.341.007l.109.005.229.009c.044,0,.088.007.134.009.069.005.137.009.2.016.048,0,.1.009.141.014.065.007.13.012.2.021l.144.019c.063.009.125.016.19.027l.146.025c.062.009.123.019.185.03s.1.018.146.028.121.025.183.035.1.023.146.032l.181.042.146.039c.06.014.118.03.178.046s.1.028.144.042.118.034.178.051l.144.046.174.055c.048.016.1.034.141.051s.116.041.172.062l.141.053.171.067c.046.018.091.039.139.058s.113.048.167.072.091.042.137.062l.165.078.135.065c.055.027.109.053.164.081l.134.069c.053.028.107.057.16.087s.088.048.132.074l.158.09.13.078c.051.03.1.064.155.1s.084.053.127.081.1.065.153.1l.125.085c.049.034.1.069.15.1s.083.058.123.088.1.071.146.108l.121.092.143.115c.04.032.081.064.12.1s.1.078.141.118.079.065.118.1l.135.122c.039.034.076.069.114.1l.134.125c.037.035.074.071.111.108s.084.085.128.129.072.074.109.11.084.088.125.134l.106.115.121.136.1.12c.04.046.077.092.116.14l.1.122c.039.048.076.1.113.143s.065.083.1.124a.345.345,0,0,0,.03.041v13.76c-.009.012-.019.028-.03.041a1.565,1.565,0,0,1-.093.127Zm1.819-5.626c.03.016.062.034.09.051s.044.028.063.041.056.039.084.06a.724.724,0,0,1,.062.048c.026.021.051.044.077.065s.037.034.055.053.048.048.07.072.033.037.049.057.044.055.065.085.028.037.042.058a.971.971,0,0,1,.063.1l.032.051c.03.053.056.106.083.161a1.9,1.9,0,0,1,.039,1.458c-.021.053-.044.1-.069.155-.007.014-.016.03-.023.046-.019.035-.039.069-.06.1l-.028.048-.072.1a.218.218,0,0,1-.025.032,1.441,1.441,0,0,1-.107.125l-.025.025a1.147,1.147,0,0,1-.1.09.387.387,0,0,0-.04.035,1.151,1.151,0,0,1-.091.071c-.014.011-.028.023-.042.032-.039.028-.079.053-.12.08a.066.066,0,0,1-.018.011c-.048.028-.1.053-.144.078l-.012.005V25.666a.183.183,0,0,0,.028.011.355.355,0,0,1,.069.034Zm-20-15.788a.446.446,0,0,1,.443-.445H29.5a.445.445,0,0,1,.443.445v5.052c-.014-.014-.028-.028-.044-.042-.03-.03-.062-.062-.093-.09l-.171-.161c-.032-.03-.065-.06-.1-.088-.06-.055-.121-.108-.181-.161-.028-.027-.058-.051-.086-.078-.086-.074-.176-.148-.264-.221A.031.031,0,0,0,29,14.126c-.091-.074-.187-.147-.28-.221-.028-.023-.058-.044-.086-.065-.067-.049-.134-.1-.2-.148-.033-.027-.069-.048-.1-.072-.065-.048-.13-.092-.2-.138-.033-.023-.067-.046-.1-.067-.074-.051-.15-.1-.225-.147-.025-.016-.048-.032-.074-.048-.1-.064-.2-.125-.3-.186-.018-.011-.035-.021-.053-.03l-.255-.147c-.033-.018-.067-.035-.1-.055-.072-.039-.144-.078-.216-.115-.035-.019-.072-.039-.109-.057-.074-.039-.146-.072-.222-.11-.033-.018-.067-.034-.1-.049-.1-.046-.19-.088-.287-.133l-.035-.016c-.109-.048-.218-.1-.329-.141-.028-.011-.058-.025-.088-.035-.081-.032-.162-.065-.243-.1l-.114-.042c-.076-.028-.151-.055-.227-.081-.039-.012-.077-.028-.116-.041-.083-.028-.164-.053-.246-.08-.032-.009-.063-.021-.1-.03l-.343-.1a.234.234,0,0,0-.033-.009c-.1-.028-.208-.055-.31-.081L23.8,11.56c-.079-.019-.16-.037-.239-.055-.042-.009-.083-.016-.125-.027l-.236-.048c-.04-.007-.079-.014-.118-.023l-.28-.048c-.025,0-.049-.009-.072-.011-.118-.018-.238-.034-.355-.049-.03,0-.062-.007-.091-.009-.088-.011-.178-.021-.266-.028-.042-.005-.084-.009-.125-.011-.079-.007-.158-.012-.238-.018l-.13-.009c-.083-.005-.165-.009-.25-.012l-.114-.005c-.121,0-.241-.005-.362-.005s-.241,0-.361.005l-.114.005-.248.012-.13.009c-.079.005-.158.011-.238.018l-.125.011c-.088.009-.178.018-.266.028-.03,0-.062.007-.093.009-.118.014-.236.03-.354.049-.025,0-.049.009-.076.011-.091.014-.185.03-.278.048-.039.007-.079.014-.12.023-.079.016-.157.03-.236.048-.042.009-.084.016-.125.027l-.238.053c-.039.009-.076.018-.113.028-.1.027-.2.051-.3.08l-.04.011c-.114.032-.229.065-.341.1l-.1.032c-.081.027-.162.051-.241.08-.04.012-.079.028-.12.041-.076.027-.15.053-.223.081-.039.014-.079.028-.118.044-.079.03-.16.062-.239.1l-.091.035c-.109.046-.218.092-.327.14a.472.472,0,0,0-.042.021c-.1.042-.188.085-.28.129l-.1.049c-.072.035-.146.071-.216.108l-.113.058c-.07.035-.141.074-.213.113l-.1.058-.252.143-.058.034c-.1.062-.2.122-.3.186-.025.016-.049.034-.076.049l-.222.145c-.033.023-.069.048-.1.069l-.2.136c-.033.025-.069.048-.1.074-.067.048-.134.1-.2.148-.028.023-.058.044-.086.065-.1.072-.188.145-.28.221l-.007.005c-.09.072-.179.148-.267.223l-.084.074c-.062.053-.123.11-.183.164l-.1.087c-.058.053-.116.108-.174.163l-.09.087c-.014.014-.03.028-.044.044Zm0,28.737V33.607c.014.014.03.028.044.044l.09.087c.058.055.116.11.174.163l.1.087c.062.057.123.11.183.164.028.027.056.049.084.074l.267.223.007.005c.091.076.187.148.28.221.028.023.058.042.086.065l.2.148c.033.025.069.049.1.072.065.046.13.092.2.136.033.025.067.048.1.069.074.049.148.1.222.145.026.016.051.034.076.049.1.064.2.125.3.186l.058.034c.084.048.167.1.252.143.033.019.069.039.1.057l.213.115.113.058.216.108.1.049c.091.044.185.087.28.129a.3.3,0,0,0,.042.018c.107.048.216.1.327.141l.091.035.239.1c.039.014.079.028.118.044.074.028.148.053.223.08.04.014.079.028.12.041.081.028.16.055.241.08.032.009.065.021.1.03.113.035.227.069.341.1a.271.271,0,0,0,.04.011c.1.028.2.053.3.08.037.011.076.018.113.028l.238.055c.042.009.084.018.125.028.079.016.157.032.236.046.04.009.081.014.12.023l.278.048.076.012c.118.016.236.034.354.048.03,0,.062.007.093.009.088.009.178.021.266.028.042.005.084.009.125.011.079.007.158.012.238.018l.13.009q.124.008.248.011l.114.005c.121,0,.241.005.361.005s.241,0,.362-.005l.114-.005.25-.011.13-.009c.079-.007.158-.012.238-.018l.125-.011c.088-.009.178-.018.266-.028.03,0,.062-.007.091-.009.118-.014.238-.032.355-.048.025-.005.048-.009.072-.012.1-.014.187-.03.28-.048.04-.009.079-.014.118-.023.079-.014.158-.03.236-.048.042-.009.084-.016.125-.027.081-.018.16-.035.239-.055.037-.009.074-.016.111-.027.1-.027.208-.053.31-.081a.117.117,0,0,1,.033-.009c.116-.032.229-.065.343-.1.032-.009.063-.019.1-.03l.246-.081c.039-.012.077-.027.116-.041.076-.027.151-.053.227-.081l.114-.042c.081-.032.162-.064.243-.1l.088-.034c.111-.046.22-.092.329-.141l.035-.016c.1-.044.192-.087.287-.133l.1-.048c.074-.035.148-.072.222-.11.037-.018.072-.039.109-.057.072-.039.144-.076.216-.117.033-.018.067-.035.1-.055l.255-.147.053-.028c.1-.062.2-.124.3-.187l.074-.048c.076-.048.151-.1.225-.147l.1-.069c.067-.046.132-.09.2-.138.033-.025.069-.048.1-.072.067-.048.135-.1.2-.148.028-.023.058-.042.086-.065.1-.072.188-.145.28-.221,0,0,.005-.005.009-.007.088-.072.178-.145.264-.221.03-.027.058-.049.086-.076.062-.053.121-.106.181-.163.032-.028.065-.058.1-.088.056-.051.114-.106.171-.161l.093-.088c.014-.014.028-.028.044-.042v5.052a.444.444,0,0,1-.009.083s0,.009,0,.012a.469.469,0,0,1-.021.071.063.063,0,0,0-.007.016.419.419,0,0,1-.033.062l-.016.019a.275.275,0,0,1-.028.035c-.009.009-.016.016-.025.027a.264.264,0,0,1-.044.034l-.035.023-.026.014a.44.44,0,0,1-.04.019.24.24,0,0,1-.042.012.185.185,0,0,1-.033.009.457.457,0,0,1-.084.009l-9.671,0H12.085a.445.445,0,0,1-.443-.445ZM33.76,44.378a.407.407,0,0,1-.158-.03L24.15,40.711H29.5c.039,0,.077,0,.116,0l.037,0,.077-.009.044-.005.07-.011.044-.007.074-.016L30,40.647a1.1,1.1,0,0,0,.109-.03l.009,0,.1-.034.025-.011.086-.035.019-.009c.033-.014.069-.032.1-.049h.009c.093,0,.187,0,.28,0a12.945,12.945,0,0,0,5.228-1.1l-1.8,4.714a.44.44,0,0,1-.41.283Zm10.4-27.695a.447.447,0,0,1,.255.576l-1.8,4.718c-.009-.018-.018-.035-.025-.053-.019-.041-.039-.08-.056-.12-.032-.069-.065-.14-.1-.207-.021-.041-.04-.081-.06-.122-.035-.071-.074-.143-.111-.214-.019-.035-.037-.071-.056-.106-.051-.1-.106-.194-.162-.29a.236.236,0,0,0-.011-.021c-.06-.1-.121-.2-.181-.306-.021-.032-.04-.065-.062-.1-.044-.069-.086-.138-.132-.2l-.072-.11-.13-.193c-.025-.035-.048-.071-.072-.1-.051-.071-.1-.141-.151-.21l-.058-.08q-.106-.14-.216-.281c-.016-.018-.032-.039-.048-.058-.058-.072-.118-.145-.178-.217-.026-.03-.051-.064-.079-.092-.051-.062-.1-.12-.155-.178-.028-.032-.058-.065-.086-.1-.053-.06-.107-.118-.162-.177-.028-.028-.055-.058-.083-.087l-.209-.216-.039-.041c-.084-.083-.167-.164-.253-.246l-.076-.071c-.062-.058-.123-.115-.187-.171-.032-.028-.063-.057-.1-.085-.058-.051-.118-.1-.178-.154-.032-.027-.065-.055-.1-.081-.065-.053-.128-.106-.2-.159-.028-.023-.055-.046-.083-.067-.093-.072-.188-.145-.282-.216-.014-.009-.026-.018-.04-.028-.083-.062-.165-.122-.25-.178-.033-.023-.065-.046-.1-.067-.065-.046-.132-.09-.2-.134-.035-.025-.072-.048-.109-.071-.067-.044-.134-.085-.2-.125-.035-.023-.07-.044-.106-.065l-.239-.141L37.16,16c-.1-.06-.208-.117-.313-.175l-.084-.044c-.079-.041-.157-.081-.236-.12-.039-.019-.076-.039-.114-.057l-.215-.1-.12-.055-.227-.1c-.035-.014-.07-.03-.106-.046-.111-.046-.223-.09-.336-.134q-.211-.08-.422-.154l-.077-.028c-.137-.048-.274-.09-.412-.133-.026-.007-.051-.014-.077-.023-.143-.042-.287-.083-.429-.12h0c-.144-.037-.29-.071-.435-.1-.026-.007-.053-.011-.079-.018q-.211-.045-.422-.085c-.026-.005-.053-.009-.079-.012q-.219-.04-.438-.069l0,0c-.148-.021-.3-.037-.443-.053l-.081-.009c-.143-.012-.287-.025-.431-.034l-.03,0v-2.49Z" fill="red"/>
    <path id="Path_245" data-name="Path 245" d="M29.662,36.41a3.51,3.51,0,1,0,3.511,3.509A3.514,3.514,0,0,0,29.662,36.41Zm0,5.414a1.9,1.9,0,1,1,1.9-1.9A1.905,1.905,0,0,1,29.662,41.824Z" transform="translate(-8.86 -15.629)" fill="red"/>
  </g>
</svg>
