<svg xmlns="http://www.w3.org/2000/svg" width="34.51" height="27.5" viewBox="0 0 34.51 27.5">
  <g id="np_video_1863915_FF0000" transform="translate(0 -10.156)">
    <path id="Path_246" data-name="Path 246" d="M27.567,10.156H6.942A6.95,6.95,0,0,0,0,17.1V30.716a6.947,6.947,0,0,0,6.942,6.94H27.567a6.95,6.95,0,0,0,6.942-6.942V17.094a6.947,6.947,0,0,0-6.942-6.938Zm3.869,20.563a3.874,3.874,0,0,1-3.869,3.869H6.942a3.873,3.873,0,0,1-3.869-3.87V17.094h0a3.873,3.873,0,0,1,3.869-3.87H27.567a3.873,3.873,0,0,1,3.869,3.87Z" fill="red"/>
    <path id="Path_247" data-name="Path 247" d="M35.309,43.949l11.675-6.74-11.675-6.74Z" transform="translate(-23.124 -13.303)" fill="red"/>
  </g>
</svg>
