<svg xmlns="http://www.w3.org/2000/svg" width="31.305" height="31.307" viewBox="0 0 31.305 31.307">
  <g id="np_wallet_3972939_FF0000" transform="translate(-5.883 -5.883)">
    <path id="Path_219" data-name="Path 219" d="M34.377,16.645H29.362V8.085a2.2,2.2,0,0,0-3.185-1.969c-.006.006-.018.006-.025.012L8,15.9a4.02,4.02,0,0,0-2.122,3.547V34.379a2.812,2.812,0,0,0,2.812,2.812H34.375a2.812,2.812,0,0,0,2.812-2.812V19.459a2.812,2.812,0,0,0-2.812-2.812Zm.855,17.732a.859.859,0,0,1-.857.857H8.695a.859.859,0,0,1-.857-.857V19.457a.859.859,0,0,1,.857-.857H34.375a.859.859,0,0,1,.857.857Z" fill="red"/>
    <path id="Path_220" data-name="Path 220" d="M74.015,63.563a1.957,1.957,0,1,1,1.957-1.957A1.963,1.963,0,0,1,74.015,63.563ZM74.015,61.606Z" transform="translate(-42.696 -34.689)" fill="red"/>
  </g>
</svg>
