<svg xmlns="http://www.w3.org/2000/svg" width="30.799" height="30.799" viewBox="0 0 30.799 30.799">
  <path id="np_activity_2510274_B8B8B8" d="M15.4,2.286a13.144,13.144,0,1,1-9.264,3.85A13.065,13.065,0,0,1,15.4,2.286ZM15.4,0A15.4,15.4,0,1,0,30.8,15.4,15.429,15.429,0,0,0,15.4,0Zm6.617,15.159c-.361-.9-.662-1.8-.962-2.647L19.971,9.625a.836.836,0,0,0-1.564,0c-.06.12-.06.18-.12.3-.6,1.985-1.2,3.91-1.865,5.9-.241.9-.541,1.744-.842,2.707-.06-.18-.18-.3-.18-.421l-1.444-3.248c-.421-.9-.782-1.8-1.2-2.707a.873.873,0,0,0-1.5-.12c-.06.12-.18.241-.241.361-.6.9-1.2,1.865-1.8,2.767H6.8A.807.807,0,0,0,5.9,16a.822.822,0,0,0,.842.842H9.625a.877.877,0,0,0,.782-.421c.12-.241.3-.481.421-.722.361-.481.662-.9,1.023-1.444.06.18.18.361.241.541.962,2.105,1.865,4.211,2.827,6.316a.9.9,0,0,0,.9.6.947.947,0,0,0,.782-.722c.6-1.865,1.2-3.79,1.8-5.715.241-.842.541-1.744.842-2.707a2.933,2.933,0,0,0,.18.421c.361,1.083.782,2.105,1.143,3.188a.869.869,0,0,0,.962.662H24a.939.939,0,0,0,.962-.9A.977.977,0,0,0,24,15.1c-.662.06-1.323.06-1.985.06Z" fill=""/>
</svg>
