<svg xmlns="http://www.w3.org/2000/svg" width="28.244" height="31.208" viewBox="0 0 28.244 31.208">
  <g id="np_contacts_1995392_B8B8B8" transform="translate(-7.097 -2.5)">
    <path id="Path_286" data-name="Path 286" d="M30.5,2.5H15.261a4.847,4.847,0,0,0-4.839,4.839v.724H8.283A1.181,1.181,0,0,0,7.1,9.248v1.317a1.181,1.181,0,0,0,1.186,1.186h2.14v4.51H8.283A1.181,1.181,0,0,0,7.1,17.446v1.317a1.181,1.181,0,0,0,1.186,1.186h2.14v4.51H8.283A1.181,1.181,0,0,0,7.1,25.643V26.96a1.181,1.181,0,0,0,1.186,1.186h2.14v.724a4.847,4.847,0,0,0,4.839,4.839H30.5a4.847,4.847,0,0,0,4.839-4.839V7.339A4.847,4.847,0,0,0,30.5,2.5Zm2.469,26.434A2.486,2.486,0,0,1,30.5,31.4H15.261a2.486,2.486,0,0,1-2.469-2.469V7.339A2.486,2.486,0,0,1,15.261,4.87H30.5a2.486,2.486,0,0,1,2.469,2.469Z" transform="translate(0)" fill=""/>
    <path id="Path_287" data-name="Path 287" d="M45.773,50.3a5.783,5.783,0,0,1-7.5,0c-1.777,1.382-2.667,3.786-2.667,6.55,0,2.041,12.872,2.041,12.872,0-.033-2.765-.923-5.168-2.7-6.55Z" transform="translate(-19.122 -32.066)" fill=""/>
    <path id="Path_288" data-name="Path 288" d="M51.1,28.953A3.852,3.852,0,1,1,47.251,25.1,3.851,3.851,0,0,1,51.1,28.953" transform="translate(-24.352 -15.162)" fill=""/>
  </g>
</svg>
