<svg xmlns="http://www.w3.org/2000/svg" width="24.744" height="24.744" viewBox="0 0 24.744 24.744">
  <g id="np_offer_3012436_B8B8B8" transform="translate(-2.5 -2.5)">
    <path id="Path_282" data-name="Path 282" d="M14.872,2.5A12.372,12.372,0,1,0,27.244,14.872,12.384,12.384,0,0,0,14.872,2.5Zm0,22.218a9.846,9.846,0,1,1,9.846-9.846A9.871,9.871,0,0,1,14.872,24.718Z" fill=""/>
    <path id="Path_283" data-name="Path 283" d="M37.808,29.447l-8.361,8.361a1.261,1.261,0,1,0,1.77,1.8l8.361-8.361a1.274,1.274,0,0,0,0-1.8,1.242,1.242,0,0,0-1.77,0Z" transform="translate(-19.654 -19.654)" fill=""/>
    <path id="Path_284" data-name="Path 284" d="M33.1,31.2a1.9,1.9,0,1,1-1.9-1.9,1.9,1.9,0,0,1,1.9,1.9" transform="translate(-19.82 -19.82)" fill=""/>
    <path id="Path_285" data-name="Path 285" d="M59.9,58A1.9,1.9,0,1,1,58,56.1,1.9,1.9,0,0,1,59.9,58" transform="translate(-39.64 -39.64)" fill=""/>
  </g>
</svg>
