<svg xmlns="http://www.w3.org/2000/svg" width="26.219" height="23.633" viewBox="0 0 26.219 23.633">
  <g id="np_store_1788617_B8B8B8" transform="translate(-8.675 -12.754)">
    <path id="Path_237" data-name="Path 237" d="M34.525,26.8,29.91,23.168a1.125,1.125,0,0,0-.7-.242H14.356a1.115,1.115,0,0,0-.7.242L9.046,26.8a.972.972,0,0,0-.371.762V30.7a.519.519,0,0,0,.519.519H34.375a.519.519,0,0,0,.519-.519V27.566a.965.965,0,0,0-.369-.763Z" transform="translate(0 -6.945)" fill="#b8b8b8"/>
    <path id="Path_238" data-name="Path 238" d="M27,12.755a.313.313,0,0,0-.312.312v.99A.313.313,0,0,0,27,14.37H41.169a.312.312,0,0,0,.311-.312v-.991a.312.312,0,0,0-.311-.312Z" transform="translate(-12.301)" fill="#b8b8b8"/>
    <path id="Path_239" data-name="Path 239" d="M76.986,64.218V54.587a.434.434,0,0,0-.434-.434H74.434v10.5h2.118a.433.433,0,0,0,.434-.433Z" transform="translate(-44.897 -28.265)" fill="#b8b8b8"/>
    <path id="Path_240" data-name="Path 240" d="M17.958,54.152a.434.434,0,0,0-.434.434v9.632a.434.434,0,0,0,.434.434h13.29v-10.5h-3v5.043a.642.642,0,0,1-.642.642H21.146a.642.642,0,0,1-.642-.642V54.151Z" transform="translate(-6.041 -28.264)" fill="#b8b8b8"/>
  </g>
</svg>
