<svg xmlns="http://www.w3.org/2000/svg" width="28.651" height="24.744" viewBox="0 0 28.651 24.744">
  <path id="np_purse_2980453_B8B8B8" d="M12.512,13a1.881,1.881,0,0,0-1.953,1.953v1.953h-1.3a1.015,1.015,0,0,0-.977.977v4.884h-1.4A1.011,1.011,0,0,0,6,23.744v6.512a1.015,1.015,0,0,0,.977.977h8.139a4.233,4.233,0,0,0,0-8.465H10.232V18.86H31.4a2.869,2.869,0,0,0,.977-.173V24.07a.977.977,0,1,0,1.953,0V15.818A2.951,2.951,0,0,0,31.4,13Zm0,1.953H31.4a.977.977,0,0,1,0,1.953H12.512ZM7.953,24.721h7.163a2.279,2.279,0,0,1,0,4.558H7.953Zm7.488.977a1.3,1.3,0,1,0,1.3,1.3A1.318,1.318,0,0,0,15.442,25.7Zm17.9,0a1.015,1.015,0,0,0-.967.987V27a.977.977,0,1,0,1.953,0v-.315A1.017,1.017,0,0,0,33.338,25.7Zm-3.9,1.628a5.264,5.264,0,0,0-2,.4.977.977,0,1,0,.753,1.8,3.29,3.29,0,0,1,1.251-.244,3.216,3.216,0,1,1-2.757,1.5.977.977,0,1,0-1.648-1.048,5.221,5.221,0,1,0,4.405-2.4Zm-1.74,2.92a.977.977,0,0,0-.58,1.669L29.4,34.193a1.02,1.02,0,0,0,1.475-.1l.977-1.3a.978.978,0,0,0-1.567-1.17l-.305.4-1.475-1.475a.989.989,0,0,0-.8-.3ZM9.245,31.863a1.015,1.015,0,0,0-.967,1v3.256a1.015,1.015,0,0,0,.977.977H23.581a.977.977,0,1,0,0-1.953H10.232V32.86A1.016,1.016,0,0,0,9.245,31.863Z" transform="translate(-6 -13)" fill=""/>
</svg>
