<svg xmlns="http://www.w3.org/2000/svg" width="25.389" height="25.391" viewBox="0 0 25.389 25.391">
  <g id="np_wallet_3972939_FF0000" transform="translate(-5.883 -5.883)">
    <path id="Path_219" data-name="Path 219" d="M28.992,14.612H24.925V7.669a1.787,1.787,0,0,0-2.583-1.6s-.015,0-.02.01L7.6,14.007a3.26,3.26,0,0,0-1.721,2.876V28.994a2.281,2.281,0,0,0,2.281,2.281H28.991a2.281,2.281,0,0,0,2.281-2.281v-12.1a2.281,2.281,0,0,0-2.281-2.281Zm.694,14.381a.7.7,0,0,1-.695.695H8.163a.7.7,0,0,1-.695-.695v-12.1a.7.7,0,0,1,.695-.695H28.991a.7.7,0,0,1,.695.695Z" transform="translate(0)" fill="#77838f"/>
    <path id="Path_220" data-name="Path 220" d="M74.015,63.563a1.957,1.957,0,1,1,1.957-1.957A1.963,1.963,0,0,1,74.015,63.563ZM74.015,61.606Z" transform="translate(-48.612 -38.809)" fill="#77838f"/>
  </g>
</svg>
